<svg width="103" height="81" viewBox="0 0 103 81" fill="none" xmlns="http://www.w3.org/2000/svg">
<g clip-path="url(#clip0_1_18)">
<path d="M8.30199 67.2C10.528 67.2 12.054 68.614 12.054 70.798C12.054 72.982 10.528 74.382 8.30199 74.382H3.12199V77H0.60199V67.2H8.30199ZM7.60199 72.268C8.35799 72.268 9.53399 72.268 9.53399 70.798C9.53399 69.314 8.35799 69.314 7.60199 69.314H3.12199V72.268H7.60199ZM13.1118 65.8H15.5058V77H13.1118V65.8ZM22.1571 68.614C25.6011 68.614 27.5611 69.72 27.5891 72.842V77H25.1811V75.978C23.7251 76.692 22.1151 77.14 20.1691 77.14C17.8591 77.14 16.4171 76.398 16.4171 74.536C16.4171 72.394 18.7691 71.722 21.3871 71.722C22.8011 71.722 24.1031 71.946 25.1811 72.31C25.1811 70.742 23.1651 70.616 22.0451 70.616C20.9671 70.616 19.6511 70.714 17.9571 71.218L17.1031 69.468C18.7831 68.922 20.4351 68.614 22.1571 68.614ZM25.1811 74.438V73.794C24.3411 73.528 23.2071 73.29 21.6811 73.29C19.8891 73.29 18.8111 73.598 18.8111 74.438C18.8111 75.306 19.6091 75.376 20.8551 75.376C22.1571 75.376 23.9491 74.97 25.1811 74.438ZM35.8527 68.614C38.0507 68.614 40.1087 69.398 40.1367 72.436L40.1087 77H37.7007V73.346C37.7007 71.596 37.1127 70.686 35.1387 70.686C33.5287 70.686 31.7927 71.512 31.0507 72.38V77H28.6567V68.754H31.0507V70.196C32.2267 69.272 33.8507 68.614 35.8527 68.614ZM49.0593 70.756H45.1533V73.136C45.1533 74.732 45.4613 75.138 46.9173 75.138C47.6733 75.138 48.0933 75.138 49.0593 74.998V76.93C48.2613 77.07 47.3513 77.14 46.2453 77.14C44.1173 77.14 42.7453 76.342 42.7453 74.522V70.756H40.5753V68.754H42.7453V67.046L45.1533 66.36V68.754H49.0593V70.756ZM49.9815 73.626H52.5015C52.5015 74.662 53.3415 75.138 56.5335 75.138C59.1795 75.138 59.9775 74.844 59.9775 74.074C59.9775 73.262 59.4175 73.122 56.2395 72.968C51.9695 72.772 50.2755 72.1 50.2755 69.902C50.2755 67.746 52.4735 67.06 56.1415 67.06C59.8375 67.06 62.0775 67.984 62.0775 70.406H59.5575C59.5575 69.328 58.4795 69.062 55.8615 69.062C53.3835 69.062 52.7955 69.3 52.7955 70.028C52.7955 70.784 53.3835 70.924 56.2395 71.092C60.1035 71.302 62.4975 71.512 62.4975 73.99C62.4975 76.608 60.0195 77.14 56.3935 77.14C52.3755 77.14 49.9815 76.454 49.9815 73.626ZM73.9106 67.2H76.4306V77H73.9106V73.164H65.9306V77H63.4106V67.2H65.9306V71.036H73.9106V67.2ZM83.4306 77.14C79.1186 77.14 77.2706 75.348 77.2706 72.086C77.2706 68.838 79.1186 67.06 83.4306 67.06C87.7286 67.06 89.5906 68.852 89.5906 72.086C89.5906 75.334 87.7286 77.14 83.4306 77.14ZM83.4306 75.026C86.0486 75.026 87.0706 74.088 87.0706 72.086C87.0706 70.098 86.0626 69.174 83.4306 69.174C80.7986 69.174 79.7906 70.084 79.7906 72.086C79.7906 74.102 80.8126 75.026 83.4306 75.026ZM98.2083 67.2C100.434 67.2 101.96 68.614 101.96 70.798C101.96 72.982 100.434 74.382 98.2083 74.382H93.0283V77H90.5083V67.2H98.2083ZM97.5083 72.268C98.2643 72.268 99.4403 72.268 99.4403 70.798C99.4403 69.314 98.2643 69.314 97.5083 69.314H93.0283V72.268H97.5083Z" fill="white"/>
<mask id="path-2-inside-1_1_18" fill="white">
<path d="M68.1587 46.5948C67.3325 45.841 66.4598 45.153 65.5533 44.5218C65.939 43.2046 66.1351 41.8415 66.1351 40.4601V33.2427C67.3726 32.2047 68.4306 30.9804 69.2707 29.6166V40.4601C69.2707 42.6146 68.8778 44.6809 68.1587 46.5948ZM62.7792 54.0906C59.7501 50.8684 55.5043 49.0359 51.0001 49.0359C46.4962 49.0359 42.2509 50.8684 39.2205 54.0903C38.4865 53.4838 37.8031 52.8211 37.1746 52.1102C40.7443 48.3506 45.7391 46.2045 51.0001 46.2045C56.2603 46.2045 61.2553 48.3509 64.8249 52.1108C64.1965 52.8218 63.5134 53.4841 62.7792 54.0906ZM44.9734 57.3079C46.6792 55.9725 48.7751 55.2473 51.0001 55.2473C53.2254 55.2473 55.3209 55.9725 57.0264 57.3082C55.1383 57.9546 53.1112 58.3104 51.0001 58.3104C48.8886 58.3104 46.8618 57.9546 44.9734 57.3079ZM50.1354 53.5922C47.5217 53.7818 45.0969 54.8242 43.1829 56.5905C42.2786 56.1705 41.4158 55.6785 40.6001 55.1246C43.0985 52.5244 46.4945 50.966 50.1354 50.7525V53.5922ZM51.8647 50.7525C55.506 50.966 58.9017 52.5244 61.3995 55.1246C60.584 55.6788 59.7217 56.1705 58.8173 56.5905C56.9033 54.8242 54.4788 53.7815 51.8647 53.5922V50.7525ZM32.7293 29.6166C33.5694 30.9804 34.6277 32.205 35.8651 33.2431V40.4601C35.8651 41.8428 36.061 43.2059 36.4464 44.5218C35.5399 45.153 34.6674 45.841 33.8412 46.5948C33.1222 44.6809 32.7293 42.6146 32.7293 40.4601V29.6166ZM41.1302 4.52997L42.699 7.18458C41.7083 7.82222 40.799 8.57035 39.9886 9.41107L37.5829 7.43937C38.6328 6.32968 39.8249 5.35177 41.1302 4.52997ZM53.3156 1.83786L52.7709 4.85775C52.1895 4.79085 51.5991 4.753 51.0001 4.753C50.4003 4.753 49.8093 4.79118 49.2272 4.85809L48.6824 1.83786C49.442 1.74359 50.2143 1.68952 51.0001 1.68952C51.7852 1.68952 52.5568 1.74359 53.3156 1.83786ZM64.4158 7.43802L62.0106 9.41005C61.1996 8.56967 60.2907 7.8212 59.2998 7.18357L60.8683 4.52897C62.1739 5.3511 63.3661 6.32832 64.4158 7.43802ZM62.3752 33.6938C60.4501 34.6562 58.3853 35.1438 56.2382 35.1438C55.2438 35.1438 54.2612 35.0357 53.2983 34.8262L68.6246 27.1651C67.3881 29.9667 65.1867 32.2881 62.3752 33.6938ZM64.0312 43.5371C60.3844 41.3714 56.2264 40.1573 51.8647 40.0151V36.2055C53.2845 36.6208 54.7503 36.8333 56.2382 36.8333C58.6616 36.8333 60.9917 36.2836 63.1627 35.1982C63.5906 34.9843 64.0039 34.7484 64.4058 34.498V40.4601C64.4058 41.5029 64.2795 42.5338 64.0312 43.5371ZM48.7015 34.8258C47.7382 35.0357 46.7553 35.1438 45.7609 35.1438C43.6141 35.1438 41.5499 34.6562 39.625 33.6938C36.8136 32.2888 34.6124 29.967 33.3755 27.1644L48.7015 34.8258ZM35.8651 20.386V23.7042C34.8019 23.7884 33.7534 23.981 32.7293 24.2807V20.386H35.8651ZM36.5061 15.2863C36.1704 16.3757 35.9597 17.5175 35.8916 18.6964H32.7514C32.8253 17.1505 33.0995 15.6556 33.5525 14.2361L36.5061 15.2863ZM37.0986 13.6988L34.1469 12.6489C34.7511 11.2432 35.5365 9.92942 36.4712 8.73288L38.8733 10.7019C38.1676 11.6237 37.5711 12.6293 37.0986 13.6988ZM64.9007 13.6978C64.4282 12.6283 63.8323 11.6227 63.1264 10.7015L65.5281 8.73187C66.463 9.9284 67.2481 11.2418 67.853 12.6475L64.9007 13.6978ZM66.1088 18.6951C66.0403 17.5161 65.8293 16.375 65.4935 15.2853L68.4468 14.2347C68.9003 15.6543 69.1749 17.1495 69.2489 18.6951H66.1088ZM66.1351 23.7042V20.3846H69.2707V24.2811C68.2466 23.9813 67.1983 23.7887 66.1351 23.7042ZM58.7602 26.792C60.685 25.8297 62.7494 25.3421 64.8958 25.3421C65.8909 25.3421 66.8742 25.4502 67.8385 25.6604L52.5105 33.3218C53.7466 30.5192 55.9483 28.1974 58.7602 26.792ZM50.1354 30.232C48.1446 27.8798 47.0313 24.9079 47.0313 21.8221C47.0313 18.7363 48.1446 15.7644 50.1354 13.4122V30.232ZM51.8647 30.232V13.4126C53.8555 15.7644 54.9682 18.7363 54.9682 21.8221C54.9682 24.9079 53.8555 27.8798 51.8647 30.232ZM37.103 25.3421C39.2501 25.3421 41.3148 25.8297 43.2396 26.792C46.0511 28.1974 48.2529 30.5192 49.4897 33.3218L34.1622 25.6597C35.1254 25.4502 36.1087 25.3421 37.103 25.3421ZM54.4739 5.15072L55.019 2.12982C56.5515 2.46739 58.0111 2.99317 59.3724 3.68183L57.8032 6.33711C56.757 5.82045 55.6416 5.41969 54.4739 5.15072ZM51.0001 6.44254C58.3919 6.44254 64.4058 12.3181 64.4058 19.5399V23.6664C62.159 23.736 59.9967 24.276 57.9727 25.288C57.2478 25.6499 56.5591 26.0662 55.911 26.5302C56.4256 25.0265 56.6975 23.4383 56.6975 21.8221C56.6975 17.5749 54.8302 13.5177 51.5745 10.6907L51.0001 10.1923L50.4259 10.6907C47.1696 13.5177 45.302 17.5746 45.302 21.8221C45.302 23.4383 45.5742 25.0265 46.0885 26.5302C45.4407 26.0662 44.752 25.6503 44.0275 25.288C42.0039 24.2763 39.8411 23.736 37.5944 23.6667V19.5399C37.5944 12.3181 43.6083 6.44254 51.0001 6.44254ZM44.1955 6.33778L42.626 3.68251C43.987 2.99385 45.4465 2.46806 46.9791 2.13015L47.5241 5.15105C46.3568 5.42037 45.2421 5.82112 44.1955 6.33778ZM37.5944 40.4601V34.498C37.9963 34.7488 38.4095 34.9843 38.8375 35.1982C41.0082 36.2832 43.3378 36.8333 45.7609 36.8333C47.2488 36.8333 48.7153 36.6208 50.1354 36.2052V40.0151C45.773 40.1573 41.615 41.3714 37.9686 43.5371C37.7207 42.5345 37.5944 41.5039 37.5944 40.4601ZM36.0927 50.7616C35.52 49.9722 35.008 49.1383 34.5703 48.2617C38.779 44.2166 44.255 41.9111 50.1354 41.7046V44.538C44.8036 44.7566 39.7771 46.9838 36.0927 50.7616ZM51.8647 44.538V41.7046C57.7448 41.9111 63.2208 44.2166 67.43 48.2617C66.9918 49.1386 66.4802 49.9726 65.9068 50.7623C62.2227 46.9838 57.1962 44.7566 51.8647 44.538ZM51.0001 -1.52588e-05C39.9719 -1.52588e-05 31 8.76532 31 19.5399V40.4601C31 51.2346 39.9719 60 51.0001 60C62.0283 60 71 51.2346 71 40.4601V19.5399C71 8.76532 62.0283 -1.52588e-05 51.0001 -1.52588e-05Z"/>
</mask>
<path d="M68.1587 46.5948C67.3325 45.841 66.4598 45.153 65.5533 44.5218C65.939 43.2046 66.1351 41.8415 66.1351 40.4601V33.2427C67.3726 32.2047 68.4306 30.9804 69.2707 29.6166V40.4601C69.2707 42.6146 68.8778 44.6809 68.1587 46.5948ZM62.7792 54.0906C59.7501 50.8684 55.5043 49.0359 51.0001 49.0359C46.4962 49.0359 42.2509 50.8684 39.2205 54.0903C38.4865 53.4838 37.8031 52.8211 37.1746 52.1102C40.7443 48.3506 45.7391 46.2045 51.0001 46.2045C56.2603 46.2045 61.2553 48.3509 64.8249 52.1108C64.1965 52.8218 63.5134 53.4841 62.7792 54.0906ZM44.9734 57.3079C46.6792 55.9725 48.7751 55.2473 51.0001 55.2473C53.2254 55.2473 55.3209 55.9725 57.0264 57.3082C55.1383 57.9546 53.1112 58.3104 51.0001 58.3104C48.8886 58.3104 46.8618 57.9546 44.9734 57.3079ZM50.1354 53.5922C47.5217 53.7818 45.0969 54.8242 43.1829 56.5905C42.2786 56.1705 41.4158 55.6785 40.6001 55.1246C43.0985 52.5244 46.4945 50.966 50.1354 50.7525V53.5922ZM51.8647 50.7525C55.506 50.966 58.9017 52.5244 61.3995 55.1246C60.584 55.6788 59.7217 56.1705 58.8173 56.5905C56.9033 54.8242 54.4788 53.7815 51.8647 53.5922V50.7525ZM32.7293 29.6166C33.5694 30.9804 34.6277 32.205 35.8651 33.2431V40.4601C35.8651 41.8428 36.061 43.2059 36.4464 44.5218C35.5399 45.153 34.6674 45.841 33.8412 46.5948C33.1222 44.6809 32.7293 42.6146 32.7293 40.4601V29.6166ZM41.1302 4.52997L42.699 7.18458C41.7083 7.82222 40.799 8.57035 39.9886 9.41107L37.5829 7.43937C38.6328 6.32968 39.8249 5.35177 41.1302 4.52997ZM53.3156 1.83786L52.7709 4.85775C52.1895 4.79085 51.5991 4.753 51.0001 4.753C50.4003 4.753 49.8093 4.79118 49.2272 4.85809L48.6824 1.83786C49.442 1.74359 50.2143 1.68952 51.0001 1.68952C51.7852 1.68952 52.5568 1.74359 53.3156 1.83786ZM64.4158 7.43802L62.0106 9.41005C61.1996 8.56967 60.2907 7.8212 59.2998 7.18357L60.8683 4.52897C62.1739 5.3511 63.3661 6.32832 64.4158 7.43802ZM62.3752 33.6938C60.4501 34.6562 58.3853 35.1438 56.2382 35.1438C55.2438 35.1438 54.2612 35.0357 53.2983 34.8262L68.6246 27.1651C67.3881 29.9667 65.1867 32.2881 62.3752 33.6938ZM64.0312 43.5371C60.3844 41.3714 56.2264 40.1573 51.8647 40.0151V36.2055C53.2845 36.6208 54.7503 36.8333 56.2382 36.8333C58.6616 36.8333 60.9917 36.2836 63.1627 35.1982C63.5906 34.9843 64.0039 34.7484 64.4058 34.498V40.4601C64.4058 41.5029 64.2795 42.5338 64.0312 43.5371ZM48.7015 34.8258C47.7382 35.0357 46.7553 35.1438 45.7609 35.1438C43.6141 35.1438 41.5499 34.6562 39.625 33.6938C36.8136 32.2888 34.6124 29.967 33.3755 27.1644L48.7015 34.8258ZM35.8651 20.386V23.7042C34.8019 23.7884 33.7534 23.981 32.7293 24.2807V20.386H35.8651ZM36.5061 15.2863C36.1704 16.3757 35.9597 17.5175 35.8916 18.6964H32.7514C32.8253 17.1505 33.0995 15.6556 33.5525 14.2361L36.5061 15.2863ZM37.0986 13.6988L34.1469 12.6489C34.7511 11.2432 35.5365 9.92942 36.4712 8.73288L38.8733 10.7019C38.1676 11.6237 37.5711 12.6293 37.0986 13.6988ZM64.9007 13.6978C64.4282 12.6283 63.8323 11.6227 63.1264 10.7015L65.5281 8.73187C66.463 9.9284 67.2481 11.2418 67.853 12.6475L64.9007 13.6978ZM66.1088 18.6951C66.0403 17.5161 65.8293 16.375 65.4935 15.2853L68.4468 14.2347C68.9003 15.6543 69.1749 17.1495 69.2489 18.6951H66.1088ZM66.1351 23.7042V20.3846H69.2707V24.2811C68.2466 23.9813 67.1983 23.7887 66.1351 23.7042ZM58.7602 26.792C60.685 25.8297 62.7494 25.3421 64.8958 25.3421C65.8909 25.3421 66.8742 25.4502 67.8385 25.6604L52.5105 33.3218C53.7466 30.5192 55.9483 28.1974 58.7602 26.792ZM50.1354 30.232C48.1446 27.8798 47.0313 24.9079 47.0313 21.8221C47.0313 18.7363 48.1446 15.7644 50.1354 13.4122V30.232ZM51.8647 30.232V13.4126C53.8555 15.7644 54.9682 18.7363 54.9682 21.8221C54.9682 24.9079 53.8555 27.8798 51.8647 30.232ZM37.103 25.3421C39.2501 25.3421 41.3148 25.8297 43.2396 26.792C46.0511 28.1974 48.2529 30.5192 49.4897 33.3218L34.1622 25.6597C35.1254 25.4502 36.1087 25.3421 37.103 25.3421ZM54.4739 5.15072L55.019 2.12982C56.5515 2.46739 58.0111 2.99317 59.3724 3.68183L57.8032 6.33711C56.757 5.82045 55.6416 5.41969 54.4739 5.15072ZM51.0001 6.44254C58.3919 6.44254 64.4058 12.3181 64.4058 19.5399V23.6664C62.159 23.736 59.9967 24.276 57.9727 25.288C57.2478 25.6499 56.5591 26.0662 55.911 26.5302C56.4256 25.0265 56.6975 23.4383 56.6975 21.8221C56.6975 17.5749 54.8302 13.5177 51.5745 10.6907L51.0001 10.1923L50.4259 10.6907C47.1696 13.5177 45.302 17.5746 45.302 21.8221C45.302 23.4383 45.5742 25.0265 46.0885 26.5302C45.4407 26.0662 44.752 25.6503 44.0275 25.288C42.0039 24.2763 39.8411 23.736 37.5944 23.6667V19.5399C37.5944 12.3181 43.6083 6.44254 51.0001 6.44254ZM44.1955 6.33778L42.626 3.68251C43.987 2.99385 45.4465 2.46806 46.9791 2.13015L47.5241 5.15105C46.3568 5.42037 45.2421 5.82112 44.1955 6.33778ZM37.5944 40.4601V34.498C37.9963 34.7488 38.4095 34.9843 38.8375 35.1982C41.0082 36.2832 43.3378 36.8333 45.7609 36.8333C47.2488 36.8333 48.7153 36.6208 50.1354 36.2052V40.0151C45.773 40.1573 41.615 41.3714 37.9686 43.5371C37.7207 42.5345 37.5944 41.5039 37.5944 40.4601ZM36.0927 50.7616C35.52 49.9722 35.008 49.1383 34.5703 48.2617C38.779 44.2166 44.255 41.9111 50.1354 41.7046V44.538C44.8036 44.7566 39.7771 46.9838 36.0927 50.7616ZM51.8647 44.538V41.7046C57.7448 41.9111 63.2208 44.2166 67.43 48.2617C66.9918 49.1386 66.4802 49.9726 65.9068 50.7623C62.2227 46.9838 57.1962 44.7566 51.8647 44.538ZM51.0001 -1.52588e-05C39.9719 -1.52588e-05 31 8.76532 31 19.5399V40.4601C31 51.2346 39.9719 60 51.0001 60C62.0283 60 71 51.2346 71 40.4601V19.5399C71 8.76532 62.0283 -1.52588e-05 51.0001 -1.52588e-05Z" fill="white" stroke="black" stroke-width="2" mask="url(#path-2-inside-1_1_18)"/>
<path d="M60.4594 20.1208C61.3327 20.1208 62.04 19.4291 62.04 18.5762C62.04 17.723 61.3327 17.0316 60.4594 17.0316C59.5865 17.0316 58.8778 17.723 58.8778 18.5762C58.8778 19.4291 59.5865 20.1208 60.4594 20.1208Z" fill="white"/>
<path d="M39.9595 18.5762C39.9595 19.4291 40.6674 20.1208 41.5409 20.1208C42.4136 20.1208 43.1216 19.4291 43.1216 18.5762C43.1216 17.723 42.4136 17.0316 41.5409 17.0316C40.6674 17.0316 39.9595 17.723 39.9595 18.5762Z" fill="white"/>
</g>
<defs>
<clipPath id="clip0_1_18">
<rect width="103" height="81" fill="white"/>
</clipPath>
</defs>
</svg>
